<svg xmlns:xlink="http://www.w3.org/1999/xlink"  xmlns="http://www.w3.org/2000/svg" xmlnsXlink="http://www.w3.org/1999/xlink" viewBox="0 0 24 24" width="2em" height="2em">
                        <style type='text/css'>
                            .icon{
                                fill:#111;
                                }
                        </style>
                        <path class='icon' d="M6.865 12a5.135 5.135 0 1110.27 0 5.135 5.135 0 01-10.27 0zM12 15.333a3.333 3.333 0 110-6.666 3.333 3.333 0 010 6.666zm6.539-8.671a1.2 1.2 0 11-2.4 0 1.2 1.2 0 012.4 0zM7.877 2.06c-1.064.049-1.791.218-2.427.465a4.902 4.902 0 00-1.771 1.153A4.902 4.902 0 002.525 5.45c-.247.636-.416 1.363-.465 2.427C2.012 8.944 2 9.284 2 12s.012 3.056.06 4.123c.049 1.064.218 1.791.465 2.427a4.903 4.903 0 001.154 1.772 4.92 4.92 0 001.77 1.153c.637.247 1.364.416 2.428.465 1.067.048 1.407.06 4.123.06s3.057-.012 4.123-.06c1.064-.049 1.791-.218 2.427-.465a5.113 5.113 0 002.925-2.925c.247-.636.416-1.363.465-2.427.048-1.067.06-1.407.06-4.123s-.012-3.056-.06-4.123c-.049-1.064-.218-1.791-.465-2.427a4.902 4.902 0 00-1.153-1.772 4.902 4.902 0 00-1.772-1.153c-.636-.247-1.363-.416-2.427-.465C15.056 2.012 14.716 2 12 2s-3.056.012-4.123.06zm8.164 1.8c.975.045 1.504.208 1.857.344.434.16.827.416 1.15.749a3.1 3.1 0 01.748 1.15c.137.352.3.881.344 1.856.048 1.055.058 1.37.058 4.041 0 2.67-.01 2.986-.058 4.041-.044.975-.207 1.505-.344 1.857a3.311 3.311 0 01-1.898 1.898c-.353.137-.882.3-1.857.344-1.054.048-1.37.058-4.041.058-2.67 0-2.986-.01-4.04-.058-.976-.044-1.505-.207-1.858-.344a3.098 3.098 0 01-1.15-.748 3.099 3.099 0 01-.748-1.15c-.137-.352-.3-.882-.344-1.857-.048-1.054-.058-1.37-.058-4.04 0-2.671.01-2.987.058-4.042.045-.975.207-1.504.344-1.857.16-.434.416-.827.749-1.15a3.098 3.098 0 011.15-.748c.352-.137.881-.3 1.856-.344 1.055-.048 1.37-.058 4.041-.058 2.67 0 2.986.01 4.041.058z" clip-rule="evenodd"></path>
                        </svg>