<svg xmlns:xlink="http://www.w3.org/1999/xlink" class="svg svg--svg_pinterest" xmlns="http://www.w3.org/2000/svg" xmlnsXlink="http://www.w3.org/1999/xlink" viewBox="0 0 24 24" width="24" height="24"><defs><symbol id="svg_pinterest" viewBox="0 0 24 24"><path d="M10.462 2.162c-.802.2-1.676.39-2.324.77-1.73 1.01-2.93 2.19-3.733 4.11-.13.31-.134.61-.229.96-.616 2.239.476 4.549 1.802 5.359.254.15.834.42 1.047.06.118-.2.09-.47.164-.7.047-.16.198-.45.164-.64-.06-.33-.41-.53-.557-.8-.3-.53-.314-1-.46-1.72l.034-.29c.044-.8.179-1.37.426-1.94.724-1.67 1.887-2.6 3.764-3.16.42-.13 1.606-.32 2.227-.19.37.06.742.13 1.112.19 1.345.42 2.324 1.2 2.848 2.42.328.76.424 2.22.197 3.19-.108.47-.091.86-.229 1.28-.51 1.55-1.257 2.98-2.947 3.38a1.897 1.897 0 01-2.226-1.12c-.076-.19-.206-.53-.13-.86.294-1.25.719-2.38 1.047-3.63.312-1.2-.28-2.14-1.211-2.36-1.158-.28-2.052.79-2.357 1.49-.243.56-.39 1.59-.197 2.33.06.24.345.87.295 1.09-.223.97-.477 2.01-.753 2.96-.287 1-.442 2.01-.72 2.97-.128.44-.123.91-.23 1.37v.67c-.095.43-.024 1.18.067 1.6.057.26-.035.599.097.789.003.15.02.18.066.26.41-.01.974-1.09 1.178-1.4.39-.6.75-1.25 1.048-1.95.268-.63.31-1.33.524-2.01.154-.49.374-1.06.425-1.59.118.29.426.5.655.66.72.52 1.959.99 3.306.68 1.524-.36 2.737-1.08 3.536-2.14.589-.78 1.033-1.69 1.375-2.71.168-.51.203-1.059.328-1.599.311-1.34-.104-2.95-.492-3.82-1.175-2.66-3.672-4.18-7.66-4.12-.425.05-.851.11-1.277.16z"></path></symbol></defs><use href="#svg_pinterest"></use></svg>