<svg xmlns:xlink="http://www.w3.org/1999/xlink" class="nav-icon_root__1P1Vg icon-button_icon__bz4Cc svg svg--svg_icon-mijnprofiel" xmlns="http://www.w3.org/2000/svg" xmlnsXlink="http://www.w3.org/1999/xlink" viewBox="0 0 24 24" width="22" height="22"><defs><symbol id="svg_icon-mijnprofiel" viewBox="0 0 24 24"><path fill-rule="evenodd" d="M9 6a3 3 0 116 0 3 3 0 01-6 0zm3-5a5 5 0 100 10 5 5 0 000-10zM4 20c0-1.817.942-3.369 2.45-4.5 1.518-1.139 3.555-1.8 5.55-1.8 1.995 0 4.032.662 5.55 1.8C19.058 16.631 20 18.183 20 20v1H4v-1zm8-8.3c-2.405 0-4.868.789-6.75 2.2C3.358 15.319 2 17.417 2 20v1c0 .527.18 1.044.568 1.432.388.388.905.568 1.432.568h16c.527 0 1.044-.18 1.432-.568.388-.388.568-.905.568-1.432v-1c0-2.583-1.358-4.681-3.25-6.1-1.882-1.412-4.345-2.2-6.75-2.2z" clip-rule="evenodd"></path></symbol></defs><use href="#svg_icon-mijnprofiel" fill="#303030"></use></svg>