<svg xmlns="http://www.w3.org/2000/svg" xmlns:xlink="http://www.w3.org/1999/xlink" class="allerhande-icon svg svg--svg_star" viewBox="0 0 22 20" width="24" height="24"><defs><symbol id="svg_star" viewBox="0 0 22 20"><path fill="#FAC75A" d="M19.942 7a1.188 1.188 0 01.698 2.154l-4.817 3.495.88 2.724.995 3.198a1.176 1.176 0 01-1.169 1.326c-.245 0-.49-.076-.7-.228l-4.832-3.499-4.825 3.497a1.189 1.189 0 01-1.83-1.332l1.85-5.675-4.834-3.507a1.187 1.187 0 01-.433-1.33A1.185 1.185 0 012.056 7h5.972l1.84-5.675a1.188 1.188 0 011.133-.822c.516 0 .97.33 1.132.82l1.842 5.68L19.942 7z"></path></symbol></defs><use href="#svg_star"></use></svg>