<svg xmlns:xlink="http://www.w3.org/1999/xlink" xmlns="http://www.w3.org/2000/svg" xmlnsXlink="http://www.w3.org/1999/xlink" viewBox="0 0 24 24" width="2em" height="2em"> 
<style type='text/css'>
    .icon{
        fill:#111;
        }
</style>
<path class='icon' d="M7.92 21a12.68 12.68 0 004.923-.964 12.756 12.756 0 004.174-2.8 12.86 12.86 0 002.78-4.204c.642-1.572.967-3.257.957-4.957v-.591A9.113 9.113 0 0023 5.13c-.826.36-1.7.6-2.594.71a4.61 4.61 0 001.989-2.51 9.2 9.2 0 01-2.87 1.098 4.491 4.491 0 00-5.42-.89 4.538 4.538 0 00-1.98 2.13 4.578 4.578 0 00-.29 2.905 12.762 12.762 0 01-5.152-1.378A12.85 12.85 0 012.53 3.828a4.57 4.57 0 00-.498 3.31 4.543 4.543 0 001.891 2.755 4.313 4.313 0 01-2.007-.572v.065a4.553 4.553 0 001.037 2.89c.67.812 1.6 1.364 2.63 1.56a4.462 4.462 0 01-2.036.083 4.55 4.55 0 001.606 2.259c.756.566 1.67.88 2.611.898a9.052 9.052 0 01-5.61 1.948A8.35 8.35 0 011 18.96 12.767 12.767 0 007.92 21z"></path>

</svg>