<svg xmlns:xlink="http://www.w3.org/1999/xlink" class="nav-icon_root__1P1Vg icon-button_icon__bz4Cc svg svg--svg_icon-cart" xmlns="http://www.w3.org/2000/svg" xmlnsXlink="http://www.w3.org/1999/xlink" viewBox="0 0 24 24" width="22" height="22"><defs><symbol id="svg_icon-cart" viewBox="0 0 24 24"><path fill-rule="evenodd" d="M7.414 7h9.172l-3.293-3.293a1 1 0 011.414-1.414L19.414 7h1.638c.653 0 1.238.293 1.598.797.344.481.438 1.094.266 1.67l-2.283 10.236v.002A2.925 2.925 0 0117.763 22H6.2a2.925 2.925 0 01-2.87-2.295v-.002L1.039 9.427a1.008 1.008 0 01-.01-.055C.844 8.258 1.6 7 3.011 7h1.574l4.707-4.707a1 1 0 011.414 1.414L7.414 7zM3 9.032l2.284 10.239v.003c.095.43.471.726.917.726h11.562a.925.925 0 00.917-.726v-.003L20.97 9H3.003A.11.11 0 003 9.032z" clip-rule="evenodd"></path></symbol></defs><use href="#svg_icon-cart" fill="#303030"></use></svg>