<svg xmlns:xlink="http://www.w3.org/1999/xlink" class="svg svg--svg_youtube" xmlns="http://www.w3.org/2000/svg" xmlnsXlink="http://www.w3.org/1999/xlink" viewBox="0 0 24 24" width="24" height="24"><defs><symbol id="svg_youtube" viewBox="0 0 24 24"><path fill-rule="evenodd" d="M21.005 5.193c.6.69.795 2.258.795 2.258s.2 1.842.2 3.682v1.726c0 1.841-.2 3.682-.2 3.682s-.196 1.567-.795 2.258c-.685.816-1.445.9-1.875.948-.047.006-.09.01-.129.016C16.202 19.993 12 20 12 20s-5.2-.054-6.8-.229a3.961 3.961 0 00-.272-.043c-.507-.069-1.302-.178-1.934-.93-.599-.69-.794-2.257-.794-2.257S2 14.7 2 12.859v-1.726c0-1.84.2-3.682.2-3.682s.195-1.567.794-2.258c.687-.817 1.448-.9 1.877-.948L5 4.23C7.798 4 11.996 4 12.004 4c0 0 4.199 0 6.997.23l.128.015c.429.047 1.19.13 1.876.948zM9.935 8.56v6.392l5.403-3.185L9.934 8.56z" clip-rule="evenodd"></path></symbol></defs><use href="#svg_youtube"></use></svg>